<svg width="32" height="32" viewBox="0 0 32 32" fill="none" xmlns="http://www.w3.org/2000/svg">
<rect x="0.5" y="0.5" width="31" height="31" rx="9.5" stroke="#E9E9EB"/>
<path fill-rule="evenodd" clip-rule="evenodd" d="M19.3747 8.6875C19.0181 8.68738 18.6658 8.76552 18.3426 8.91639C18.0195 9.06727 17.7334 9.28721 17.5045 9.56071C17.2757 9.8342 17.1096 10.1546 17.0181 10.4993C16.9265 10.8439 16.9117 11.2045 16.9747 11.5555L13.4272 14.0395C13.4094 14.0518 13.3924 14.065 13.3762 14.0793C13.0163 13.7979 12.5846 13.6234 12.1303 13.5755C11.676 13.5277 11.2174 13.6085 10.8068 13.8087C10.3962 14.0089 10.0501 14.3204 9.80797 14.7078C9.56587 15.0952 9.4375 15.5428 9.4375 15.9996C9.4375 16.4564 9.56587 16.9041 9.80797 17.2914C10.0501 17.6788 10.3962 17.9904 10.8068 18.1906C11.2174 18.3908 11.676 18.4716 12.1303 18.4237C12.5846 18.3759 13.0163 18.2013 13.3762 17.92C13.3924 17.9345 13.4094 17.948 13.4272 17.9605L16.9747 20.4445C16.8694 21.0316 16.983 21.6369 17.2939 22.1458C17.6049 22.6548 18.0917 23.032 18.6622 23.2062C19.2326 23.3803 19.8471 23.3393 20.3893 23.0908C20.9316 22.8423 21.3638 22.4037 21.6044 21.8579C21.8449 21.3121 21.877 20.6971 21.6945 20.1292C21.5121 19.5614 21.1278 19.0802 20.6143 18.7766C20.1009 18.4731 19.494 18.3684 18.9085 18.4822C18.3231 18.5961 17.7997 18.9207 17.4374 19.3945L14.0782 17.0433C14.2282 16.7267 14.3122 16.3735 14.3122 16C14.3122 15.6265 14.2282 15.2725 14.0782 14.9567L17.4382 12.6048C17.6899 12.9342 18.0214 13.194 18.4015 13.3596C18.7816 13.5252 19.1976 13.5911 19.6103 13.5511C20.023 13.5111 20.4186 13.3665 20.7598 13.131C21.101 12.8955 21.3765 12.5769 21.5602 12.2052C21.7439 11.8335 21.8298 11.4212 21.8098 11.0071C21.7897 10.593 21.6644 10.1908 21.4456 9.83865C21.2268 9.48649 20.9218 9.19596 20.5594 8.99453C20.197 8.7931 19.7893 8.68742 19.3747 8.6875ZM18.0622 11.125C18.0622 10.7769 18.2005 10.4431 18.4466 10.1969C18.6928 9.95078 19.0266 9.8125 19.3747 9.8125C19.7228 9.8125 20.0566 9.95078 20.3028 10.1969C20.5489 10.4431 20.6872 10.7769 20.6872 11.125C20.6872 11.4731 20.5489 11.8069 20.3028 12.0531C20.0566 12.2992 19.7228 12.4375 19.3747 12.4375C19.0266 12.4375 18.6928 12.2992 18.4466 12.0531C18.2005 11.8069 18.0622 11.4731 18.0622 11.125ZM11.8747 14.6875C11.5266 14.6875 11.1928 14.8258 10.9466 15.0719C10.7005 15.3181 10.5622 15.6519 10.5622 16C10.5622 16.3481 10.7005 16.6819 10.9466 16.9281C11.1928 17.1742 11.5266 17.3125 11.8747 17.3125C12.2228 17.3125 12.5566 17.1742 12.8028 16.9281C13.0489 16.6819 13.1872 16.3481 13.1872 16C13.1872 15.6519 13.0489 15.3181 12.8028 15.0719C12.5566 14.8258 12.2228 14.6875 11.8747 14.6875ZM19.3747 19.5625C19.0266 19.5625 18.6928 19.7008 18.4466 19.9469C18.2005 20.1931 18.0622 20.5269 18.0622 20.875C18.0622 21.2231 18.2005 21.5569 18.4466 21.8031C18.6928 22.0492 19.0266 22.1875 19.3747 22.1875C19.7228 22.1875 20.0566 22.0492 20.3028 21.8031C20.5489 21.5569 20.6872 21.2231 20.6872 20.875C20.6872 20.5269 20.5489 20.1931 20.3028 19.9469C20.0566 19.7008 19.7228 19.5625 19.3747 19.5625Z" fill="white"/>
</svg>
